<svg width="56" height="56" viewBox="0 0 56 56" fill="none" xmlns="http://www.w3.org/2000/svg">
<g clip-path="url(#clip0_73_1111)">
<path fill-rule="evenodd" clip-rule="evenodd" d="M39.1932 0H16.1343C11.8568 0.00472711 7.7558 1.70602 4.73107 4.73062C1.70635 7.75523 0.00489671 11.8561 0 16.1337L0 39.1937C0.00486926 43.4712 1.70631 47.5722 4.73104 50.5968C7.75577 53.6214 11.8568 55.3227 16.1343 55.3275H39.1932C43.4707 55.3227 47.5717 53.6214 50.5964 50.5968C53.6211 47.5722 55.3226 43.4712 55.3275 39.1937V16.1337C55.3226 11.8561 53.6211 7.75523 50.5964 4.73062C47.5717 1.70602 43.4707 0.00472711 39.1932 0V0ZM50.1442 39.1937C50.1409 42.097 48.986 44.8804 46.933 46.9333C44.88 48.9862 42.0965 50.1409 39.1932 50.1441H16.1343C13.231 50.1409 10.4475 48.9862 8.39448 46.9333C6.34146 44.8804 5.1866 42.097 5.18325 39.1937V16.1337C5.18662 13.2304 6.34149 10.4469 8.3945 8.39404C10.4475 6.34116 13.231 5.18645 16.1343 5.18325H39.1932C42.0965 5.18645 44.8799 6.34116 46.933 8.39404C48.986 10.4469 50.1408 13.2304 50.1442 16.1337V39.1937Z" fill="white"/>
<path fill-rule="evenodd" clip-rule="evenodd" d="M27.632 13.6164C24.8572 13.6163 22.1447 14.4391 19.8375 15.9807C17.5302 17.5223 15.732 19.7134 14.6701 22.277C13.6082 24.8406 13.3303 27.6616 13.8716 30.3831C14.4129 33.1046 15.7491 35.6045 17.7112 37.5666C19.6733 39.5287 22.1732 40.8649 24.8947 41.4063C27.6162 41.9477 30.4371 41.6698 33.0007 40.608C35.5643 39.5461 37.7555 37.7478 39.2971 35.4407C40.8387 33.1335 41.6616 30.421 41.6615 27.6461C41.6574 23.9265 40.178 20.3604 37.5479 17.7302C34.9177 15.1 31.3516 13.6206 27.632 13.6164V13.6164ZM27.632 36.4926C25.8824 36.4926 24.172 35.9738 22.7172 35.0017C21.2624 34.0297 20.1285 32.6481 19.459 31.0316C18.7894 29.4152 18.6142 27.6365 18.9555 25.9204C19.2968 24.2044 20.1393 22.6281 21.3765 21.3909C22.6137 20.1537 24.19 19.3112 25.906 18.9698C27.6221 18.6285 29.4008 18.8036 31.0172 19.4732C32.6337 20.1428 34.0153 21.2766 34.9874 22.7314C35.9595 24.1862 36.4783 25.8965 36.4783 27.6462C36.4756 29.9916 35.5428 32.2401 33.8843 33.8985C32.2259 35.5569 29.9774 36.4898 27.632 36.4925V36.4926Z" fill="white"/>
<path d="M42.3975 16.2138C44.2304 16.2138 45.7162 14.728 45.7162 12.8951C45.7162 11.0623 44.2304 9.57648 42.3975 9.57648C40.5647 9.57648 39.0789 11.0623 39.0789 12.8951C39.0789 14.728 40.5647 16.2138 42.3975 16.2138Z" fill="white"/>
</g>
<defs>
<clipPath id="clip0_73_1111">
<rect width="55.3275" height="55.3275" fill="white"/>
</clipPath>
</defs>
</svg>
