<svg width="389" height="85" viewBox="0 0 389 85" fill="none" xmlns="http://www.w3.org/2000/svg">
<path d="M14.951 25.5488C15.0443 25.4434 15.4906 25.9363 15.5643 26.0185C17.1492 27.7984 18.8761 30.5764 20.1727 32.624C29.5652 47.4534 35.8288 66.2233 24.2616 81.832C24.0005 82.1845 23.1107 83.5041 22.7205 83.499C22.6057 83.4971 22.5377 83.4499 22.5028 83.3417C22.3878 82.9884 23.3153 80.5049 23.4784 79.9169C27.9804 63.6307 23.4286 47.1747 17.4715 31.9316C16.6405 29.805 15.6172 27.7319 14.952 25.5488H14.951ZM55.9403 21.8749C55.797 23.2261 55.414 24.5471 55.202 25.8945C54.0487 33.2338 54.8784 39.7412 57.6873 46.5585C58.1274 47.628 59.1763 49.4215 59.4354 50.3779C59.4918 50.5876 59.5094 50.6772 59.4266 50.8954C57.7607 50.103 56.1673 48.6059 55.0008 47.1718C49.5932 40.5195 50.43 31.555 54.1952 24.3222C54.4109 23.9076 55.3376 22.1627 55.6043 21.9619C55.7193 21.8752 55.7952 21.8533 55.9403 21.8749ZM44.8709 2.1806C45.0647 2.12917 45.1869 2.28841 45.2791 2.42963C45.5402 2.83103 45.7491 3.59336 45.9979 4.06732C47.7269 7.36136 49.9553 9.80059 53.5848 10.8964C56.9685 11.9169 59.4638 12.2061 62.4715 14.3544C69.1547 19.1281 70.3827 29.1472 64.7518 35.2568C64.4813 35.5508 63.7894 36.3796 63.6678 35.5956C64.3199 33.5688 64.9692 31.4985 65.1727 29.3652C65.6466 24.4089 63.5967 20.7725 59.4178 18.2548C54.9797 15.5818 48.7791 14.8916 45.9354 10.0654C44.7652 8.0801 44.3067 5.35635 44.6327 3.07806C44.6562 2.91316 44.723 2.22021 44.87 2.18158L44.8709 2.1806ZM25.7088 0.0292344C25.771 -0.00938832 25.999 -0.00943695 26.0594 0.0272813L26.0584 0.0263047C26.2855 0.166669 26.2946 3.09917 26.2635 3.54974C25.7443 10.9673 19.0323 13.3652 13.537 16.2656C7.19655 19.6115 4.08433 23.5978 5.16879 31.1396C5.39776 32.7339 5.95184 34.2447 6.1893 35.8193C5.91811 36.1055 4.82234 34.6001 4.66098 34.3808C-1.05769 26.5646 3.05343 15.9593 11.1815 11.8378C13.8122 10.5036 16.8863 9.96857 19.3729 8.43939C22.5229 6.50113 24.3934 3.412 25.7088 0.0292344Z" fill="#1E5250"/>
<path d="M38.4763 12.7459C38.7276 12.6623 38.9174 12.7921 38.8893 13.0584C37.5334 19.4235 37.9891 25.903 40.7839 31.8016C42.2321 34.8583 44.3675 37.4529 45.7809 40.5623C50.427 50.7775 49.3572 63.699 43.1647 73.0321C42.2592 74.3965 40.7178 76.5107 39.5485 77.6141C39.2433 77.9024 38.7359 78.1906 38.8073 77.5389C44.0388 66.5163 46.5372 54.2487 41.1335 42.7596C37.1383 34.2641 31.9921 26.2517 36.2595 16.5643C36.4818 16.0602 38.169 12.8477 38.4753 12.7459H38.4763ZM36.0348 70.0467C38.3792 69.667 38.6673 73.296 36.3766 73.411C34.3748 73.5104 34.0234 70.3729 36.0348 70.0467ZM38.2956 63.5448C40.6446 63.1642 41.0855 66.7276 38.8298 67.0018C36.558 67.2778 36.1915 63.8859 38.2956 63.5448ZM38.6735 56.5721C41.6723 56.0563 42.0443 60.1568 39.571 60.5789C36.764 61.0576 36.3621 56.9707 38.6735 56.5721ZM38.8649 50.2557C41.5255 50.045 41.8732 54.1638 39.2145 54.3846C36.3971 54.6183 36.2821 50.4602 38.8649 50.2557ZM37.07 44.1346C39.8111 43.7125 40.2934 47.7297 37.8727 48.1414C34.9719 48.6348 34.5667 44.5202 37.07 44.1346ZM34.5309 37.7284C37.3925 37.3761 37.8702 41.7592 35.2507 42.1248C32.0611 42.5696 31.7145 38.0761 34.5309 37.7284ZM32.3522 31.6161C35.075 31.606 35.1107 36.1355 32.0534 35.8202C29.562 35.5629 29.6451 31.6255 32.3522 31.6161ZM30.2917 25.7577C32.3015 25.557 33.1248 28.6079 31.2243 29.4305C28.5172 30.6007 27.3235 26.0545 30.2917 25.7577ZM29.5104 20.2733C31.2385 18.9777 33.2535 21.4087 31.7858 22.8778C30.1011 24.5634 27.5593 21.7367 29.5104 20.2733ZM32.6413 14.077C35.012 13.6728 35.4523 17.0578 33.3513 17.4227C30.958 17.8382 30.594 14.4259 32.6413 14.077ZM33.6423 9.56332C35.1046 8.00231 37.5238 10.3631 35.9225 11.8905C34.3961 13.3463 32.2439 11.0568 33.6423 9.56332ZM35.4714 3.993C37.2108 3.80172 37.9816 6.20496 36.4391 7.03793C34.095 8.30383 32.8824 4.27684 35.4714 3.993Z" fill="#609696"/>
<path d="M367.74 41.076V18.9844H376.356C379.217 18.9844 381.468 19.6682 383.109 21.0358C384.751 22.3823 385.571 24.2654 385.571 26.6849C385.571 28.2839 385.203 29.662 384.467 30.8192C383.73 31.9554 382.678 32.8285 381.311 33.4386C379.943 34.0488 378.291 34.3539 376.356 34.3539H369.476L370.896 32.9021V41.076H367.74ZM382.51 41.076L376.892 33.0599H380.269L385.95 41.076H382.51ZM370.896 33.2177L369.476 31.6713H376.261C378.281 31.6713 379.806 31.24 380.837 30.3774C381.889 29.4937 382.415 28.2629 382.415 26.6849C382.415 25.1069 381.889 23.8866 380.837 23.024C379.806 22.1614 378.281 21.7301 376.261 21.7301H369.476L370.896 20.1521V33.2177Z" fill="#1E5250"/>
<path d="M341.28 41.076L351.284 18.9844H354.409L364.444 41.076H361.131L352.199 20.7517H353.462L344.53 41.076H341.28ZM345.54 35.5531L346.392 33.0284H358.827L359.742 35.5531H345.54Z" fill="#1E5250"/>
<path d="M325.887 41.076V18.9844H329.043V38.3304H341.004V41.076H325.887Z" fill="#1E5250"/>
<path d="M316.117 41.076V18.9844H319.273V41.076H316.117Z" fill="#1E5250"/>
<path d="M293.649 41.076V18.9844H302.265C304.201 18.9844 305.852 19.2895 307.22 19.8996C308.587 20.5098 309.639 21.3934 310.376 22.5506C311.112 23.7078 311.48 25.0859 311.48 26.6849C311.48 28.2839 311.112 29.662 310.376 30.8192C309.639 31.9554 308.587 32.839 307.22 33.4702C305.852 34.0804 304.201 34.3854 302.265 34.3854H295.385L296.805 32.9021V41.076H293.649ZM296.805 33.2177L295.385 31.6398H302.17C304.19 31.6398 305.715 31.2084 306.746 30.3458C307.798 29.4832 308.324 28.2629 308.324 26.6849C308.324 25.1069 307.798 23.8866 306.746 23.024C305.715 22.1614 304.19 21.7301 302.17 21.7301H295.385L296.805 20.1521V33.2177Z" fill="#1E5250"/>
<path d="M264.031 41.076V18.9844H279.622V21.7301H267.187V38.3304H280.063V41.076H264.031ZM266.903 31.1979V28.5154H278.265V31.1979H266.903Z" fill="#1E5250"/>
<path d="M233.89 41.076V18.9844H236.478L246.387 35.6794H244.999L254.782 18.9844H257.37L257.401 41.076H254.372L254.34 23.7499H255.066L246.356 38.3935H244.904L236.13 23.7499H236.919V41.076H233.89Z" fill="#1E5250"/>
<path d="M210.959 41.076V18.9844H219.575C222.437 18.9844 224.688 19.6682 226.329 21.0358C227.97 22.3823 228.791 24.2654 228.791 26.6849C228.791 28.2839 228.422 29.662 227.686 30.8192C226.95 31.9554 225.898 32.8285 224.53 33.4386C223.162 34.0488 221.511 34.3539 219.575 34.3539H212.695L214.115 32.9021V41.076H210.959ZM225.729 41.076L220.112 33.0599H223.489L229.169 41.076H225.729ZM214.115 33.2177L212.695 31.6713H219.481C221.5 31.6713 223.026 31.24 224.057 30.3774C225.109 29.4937 225.635 28.2629 225.635 26.6849C225.635 25.1069 225.109 23.8866 224.057 23.024C223.026 22.1614 221.5 21.7301 219.481 21.7301H212.695L214.115 20.1521V33.2177Z" fill="#1E5250"/>
<path d="M189.817 41.076V18.9844H205.408V21.7301H192.973V38.3304H205.849V41.076H189.817ZM192.689 31.1979V28.5154H204.05V31.1979H192.689Z" fill="#1E5250"/>
<path d="M180.049 41.076V18.9844H183.205V41.076H180.049ZM164.206 41.076V18.9844H167.362V41.076H164.206ZM167.046 31.2295V28.4838H180.333V31.2295H167.046Z" fill="#1E5250"/>
<path d="M145.468 41.076V18.9844H148.623V38.3304H160.585V41.076H145.468Z" fill="#1E5250"/>
<path d="M135.698 41.076V18.9844H138.854V41.076H135.698Z" fill="#1E5250"/>
<path d="M119.886 41.3285C116.982 41.3285 114.7 40.4974 113.037 38.8353C111.375 37.1732 110.544 34.7431 110.544 31.5451V18.9844H113.7V31.4188C113.7 33.8805 114.237 35.6794 115.31 36.8155C116.404 37.9517 117.94 38.5197 119.917 38.5197C121.916 38.5197 123.452 37.9517 124.525 36.8155C125.619 35.6794 126.166 33.8805 126.166 31.4188V18.9844H129.227V31.5451C129.227 34.7431 128.396 37.1732 126.734 38.8353C125.093 40.4974 122.81 41.3285 119.886 41.3285Z" fill="#1E5250"/>
<path d="M96.3278 41.3285C94.6236 41.3285 93.0562 41.055 91.6255 40.508C90.1948 39.9399 88.9534 39.1509 87.9015 38.141C86.8495 37.1101 86.0289 35.9108 85.4398 34.5432C84.8507 33.1757 84.5562 31.6713 84.5562 30.0302C84.5562 28.3891 84.8507 26.8848 85.4398 25.5172C86.0289 24.1496 86.8495 22.9609 87.9015 21.951C88.9745 20.9201 90.2263 20.1311 91.657 19.584C93.0877 19.016 94.6657 18.7319 96.391 18.7319C98.1372 18.7319 99.7363 19.016 101.188 19.584C102.64 20.1521 103.871 21.0042 104.88 22.1404L102.924 24.097C102.019 23.2134 101.03 22.5717 99.9572 22.1719C98.9052 21.7511 97.7585 21.5407 96.5172 21.5407C95.2548 21.5407 94.0766 21.7511 92.9825 22.1719C91.9095 22.5927 90.9732 23.1818 90.1737 23.9392C89.3953 24.6967 88.7851 25.6014 88.3433 26.6534C87.9225 27.6843 87.7121 28.8099 87.7121 30.0302C87.7121 31.2295 87.9225 32.3551 88.3433 33.4071C88.7851 34.438 89.3953 35.3427 90.1737 36.1212C90.9732 36.8786 91.9095 37.4677 92.9825 37.8885C94.0556 38.3093 95.2233 38.5197 96.4856 38.5197C97.6639 38.5197 98.7895 38.3409 99.8625 37.9832C100.957 37.6045 101.966 36.9838 102.892 36.1212L104.691 38.5197C103.597 39.4455 102.314 40.1503 100.841 40.6342C99.3891 41.0971 97.8848 41.3285 96.3278 41.3285ZM104.691 38.5197L101.661 38.1095V29.904H104.691V38.5197Z" fill="#1E5250"/>
<path d="M379.808 61.7043V52.9136H386.011V54.0062H381.063V61.7043H379.808ZM380.938 58.1504V57.0703H385.471V58.1504H380.938Z" fill="#69918F"/>
<path d="M372.514 58.7783V57.7359H375.892V58.7783H372.514Z" fill="#69918F"/>
<path d="M366.144 61.8048C365.524 61.8048 364.922 61.7085 364.336 61.5159C363.758 61.3234 363.285 61.0638 362.917 60.7373L363.494 59.7452C363.787 60.0215 364.168 60.2476 364.637 60.4234C365.106 60.5992 365.604 60.6871 366.131 60.6871C366.801 60.6871 367.316 60.5448 367.676 60.2601C368.036 59.9755 368.216 59.5945 368.216 59.1173C368.216 58.7908 368.136 58.5062 367.977 58.2634C367.818 58.0206 367.542 57.8364 367.149 57.7108C366.763 57.5769 366.232 57.5099 365.554 57.5099H363.557L364.022 52.9136H368.982V54.0062H364.486L365.139 53.3908L364.775 57.0201L364.122 56.4173H365.817C366.696 56.4173 367.404 56.5303 367.94 56.7564C368.476 56.9824 368.865 57.2964 369.108 57.6983C369.35 58.0917 369.472 58.548 369.472 59.0671C369.472 59.5694 369.35 60.0299 369.108 60.4485C368.865 60.8587 368.496 61.1894 368.003 61.4406C367.517 61.6834 366.897 61.8048 366.144 61.8048Z" fill="#69918F"/>
<path d="M357.046 61.8048C356.426 61.8048 355.823 61.7085 355.237 61.5159C354.66 61.3234 354.186 61.0638 353.818 60.7373L354.396 59.7452C354.689 60.0215 355.07 60.2476 355.539 60.4234C356.007 60.5992 356.51 60.6871 357.046 60.6871C357.699 60.6871 358.205 60.549 358.565 60.2727C358.933 59.988 359.118 59.6071 359.118 59.1299C359.118 58.6694 358.942 58.301 358.59 58.0248C358.247 57.7401 357.699 57.5978 356.945 57.5978H356.242V56.7187L358.854 53.5038L359.03 54.0062H354.22V52.9136H360.022V53.7676L357.422 56.9699L356.769 56.5806H357.184C358.247 56.5806 359.042 56.8192 359.57 57.2964C360.106 57.7736 360.373 58.3806 360.373 59.1173C360.373 59.6113 360.252 60.0634 360.009 60.4736C359.766 60.8838 359.398 61.2104 358.904 61.4531C358.419 61.6876 357.799 61.8048 357.046 61.8048Z" fill="#69918F"/>
<path d="M346.587 61.7043L350.316 53.441L350.643 54.0062H345.419L346.047 53.3908V55.5759H344.841V52.9136H351.472V53.7676L347.918 61.7043H346.587Z" fill="#69918F"/>
<path d="M338.53 61.8048C337.818 61.8048 337.203 61.7001 336.684 61.4908C336.165 61.2815 335.763 60.9843 335.478 60.5992C335.194 60.2057 335.051 59.7452 335.051 59.2178C335.051 58.6987 335.185 58.2592 335.453 57.8992C335.729 57.5308 336.127 57.2545 336.646 57.0704C337.165 56.8778 337.793 56.7815 338.53 56.7815C339.267 56.7815 339.895 56.8778 340.414 57.0704C340.941 57.2545 341.343 57.5308 341.619 57.8992C341.895 58.2676 342.034 58.7071 342.034 59.2178C342.034 59.7452 341.891 60.2057 341.607 60.5992C341.322 60.9843 340.916 61.2815 340.388 61.4908C339.861 61.7001 339.242 61.8048 338.53 61.8048ZM338.53 60.7876C339.233 60.7876 339.782 60.6452 340.175 60.3606C340.577 60.0676 340.778 59.6741 340.778 59.1801C340.778 58.6945 340.577 58.3136 340.175 58.0373C339.782 57.7527 339.233 57.6104 338.53 57.6104C337.835 57.6104 337.291 57.7527 336.897 58.0373C336.504 58.3136 336.307 58.6945 336.307 59.1801C336.307 59.6741 336.504 60.0676 336.897 60.3606C337.291 60.6452 337.835 60.7876 338.53 60.7876ZM338.53 56.6559C339.141 56.6559 339.618 56.5304 339.962 56.2792C340.313 56.028 340.489 55.6848 340.489 55.2494C340.489 54.8057 340.309 54.4583 339.949 54.2071C339.589 53.9559 339.116 53.8303 338.53 53.8303C337.944 53.8303 337.475 53.9559 337.123 54.2071C336.78 54.4583 336.608 54.8057 336.608 55.2494C336.608 55.6848 336.776 56.028 337.111 56.2792C337.454 56.5304 337.927 56.6559 338.53 56.6559ZM338.53 57.4597C337.86 57.4597 337.291 57.3717 336.822 57.1959C336.353 57.0117 335.993 56.7522 335.742 56.4173C335.491 56.0741 335.365 55.668 335.365 55.1992C335.365 54.7052 335.495 54.2824 335.755 53.9308C336.022 53.5708 336.395 53.2945 336.872 53.102C337.349 52.9094 337.902 52.8131 338.53 52.8131C339.166 52.8131 339.723 52.9094 340.2 53.102C340.677 53.2945 341.05 53.5708 341.318 53.9308C341.586 54.2824 341.72 54.7052 341.72 55.1992C341.72 55.668 341.594 56.0741 341.343 56.4173C341.092 56.7522 340.728 57.0117 340.25 57.1959C339.773 57.3717 339.2 57.4597 338.53 57.4597Z" fill="#69918F"/>
<path d="M328.719 61.8048C328.099 61.8048 327.496 61.7085 326.91 61.5159C326.333 61.3234 325.86 61.0638 325.491 60.7373L326.069 59.7452C326.362 60.0215 326.743 60.2476 327.212 60.4234C327.681 60.5992 328.183 60.6871 328.719 60.6871C329.372 60.6871 329.878 60.549 330.238 60.2727C330.607 59.988 330.791 59.6071 330.791 59.1299C330.791 58.6694 330.615 58.301 330.263 58.0248C329.92 57.7401 329.372 57.5978 328.618 57.5978H327.915V56.7187L330.527 53.5038L330.703 54.0062H325.893V52.9136H331.695V53.7676L329.095 56.9699L328.442 56.5806H328.857C329.92 56.5806 330.715 56.8192 331.243 57.2964C331.779 57.7736 332.047 58.3806 332.047 59.1173C332.047 59.6113 331.925 60.0634 331.682 60.4736C331.44 60.8838 331.071 61.2104 330.577 61.4531C330.092 61.6876 329.472 61.8048 328.719 61.8048Z" fill="#69918F"/>
<path d="M319.71 61.8048C319.09 61.8048 318.487 61.7085 317.901 61.5159C317.324 61.3234 316.851 61.0638 316.482 60.7373L317.06 59.7452C317.353 60.0215 317.734 60.2476 318.203 60.4234C318.671 60.5992 319.174 60.6871 319.71 60.6871C320.363 60.6871 320.869 60.549 321.229 60.2727C321.598 59.988 321.782 59.6071 321.782 59.1299C321.782 58.6694 321.606 58.301 321.254 58.0248C320.911 57.7401 320.363 57.5978 319.609 57.5978H318.906V56.7187L321.518 53.5038L321.694 54.0062H316.884V52.9136H322.686V53.7676L320.086 56.9699L319.433 56.5806H319.848C320.911 56.5806 321.706 56.8192 322.234 57.2964C322.77 57.7736 323.038 58.3806 323.038 59.1173C323.038 59.6113 322.916 60.0634 322.673 60.4736C322.431 60.8838 322.062 61.2104 321.568 61.4531C321.083 61.6876 320.463 61.8048 319.71 61.8048Z" fill="#69918F"/>
<path d="M304.019 61.8048C303.35 61.8048 302.726 61.6917 302.148 61.4657C301.579 61.2397 301.085 60.9257 300.666 60.5238C300.248 60.1136 299.921 59.6364 299.687 59.0922C299.452 58.548 299.335 57.9536 299.335 57.309C299.335 56.6643 299.452 56.0699 299.687 55.5257C299.921 54.9815 300.248 54.5085 300.666 54.1066C301.085 53.6964 301.579 53.3783 302.148 53.1522C302.718 52.9262 303.341 52.8131 304.019 52.8131C304.689 52.8131 305.305 52.9262 305.865 53.1522C306.435 53.3699 306.929 53.6838 307.347 54.0941C307.774 54.4959 308.101 54.969 308.327 55.5131C308.561 56.0573 308.678 56.6559 308.678 57.309C308.678 57.962 308.561 58.5606 308.327 59.1048C308.101 59.649 307.774 60.1262 307.347 60.5364C306.929 60.9383 306.435 61.2522 305.865 61.4783C305.305 61.6959 304.689 61.8048 304.019 61.8048ZM304.019 60.6871C304.505 60.6871 304.953 60.6034 305.363 60.4359C305.782 60.2685 306.142 60.0341 306.443 59.7327C306.753 59.4229 306.991 59.0629 307.159 58.6527C307.335 58.2424 307.423 57.7945 307.423 57.309C307.423 56.8234 307.335 56.3755 307.159 55.9652C306.991 55.555 306.753 55.1992 306.443 54.8978C306.142 54.588 305.782 54.3494 305.363 54.182C304.953 54.0145 304.505 53.9308 304.019 53.9308C303.525 53.9308 303.069 54.0145 302.651 54.182C302.24 54.3494 301.88 54.588 301.571 54.8978C301.261 55.1992 301.018 55.555 300.842 55.9652C300.675 56.3755 300.591 56.8234 300.591 57.309C300.591 57.7945 300.675 58.2424 300.842 58.6527C301.018 59.0629 301.261 59.4229 301.571 59.7327C301.88 60.0341 302.24 60.2685 302.651 60.4359C303.069 60.6034 303.525 60.6871 304.019 60.6871Z" fill="#69918F"/>
<path d="M292.665 61.7043V54.0062H289.651V52.9136H296.922V54.0062H293.908V61.7043H292.665Z" fill="#69918F"/>
<path d="M285.148 61.7043V52.9136H286.404V61.7043H285.148Z" fill="#69918F"/>
<path d="M275.293 61.7043V52.9136H281.497V54.0062H276.549V61.7043H275.293ZM276.423 58.1504V57.0703H280.957V58.1504H276.423Z" fill="#69918F"/>
<path d="M264.996 61.7043V52.9136H271.2V54.0062H266.252V60.6117H271.376V61.7043H264.996ZM266.139 57.7736V56.7062H270.66V57.7736H266.139Z" fill="#69918F"/>
<path d="M253.988 61.7043V52.9136H257.417C258.555 52.9136 259.451 53.1857 260.104 53.7299C260.757 54.2657 261.084 55.015 261.084 55.9778C261.084 56.6141 260.937 57.1624 260.644 57.6229C260.351 58.075 259.932 58.4224 259.388 58.6652C258.844 58.908 258.187 59.0294 257.417 59.0294H254.679L255.244 58.4517V61.7043H253.988ZM259.865 61.7043L257.63 58.5145H258.974L261.234 61.7043H259.865ZM255.244 58.5773L254.679 57.962H257.379C258.183 57.962 258.79 57.7903 259.2 57.4471C259.619 57.0955 259.828 56.6057 259.828 55.9778C259.828 55.3499 259.619 54.8643 259.2 54.521C258.79 54.1778 258.183 54.0062 257.379 54.0062H254.679L255.244 53.3783V58.5773Z" fill="#69918F"/>
<path d="M247.083 61.8048C246.413 61.8048 245.793 61.6959 245.224 61.4783C244.663 61.2522 244.173 60.9383 243.755 60.5364C243.344 60.1262 243.022 59.649 242.788 59.1048C242.553 58.5606 242.436 57.962 242.436 57.309C242.436 56.6559 242.553 56.0573 242.788 55.5131C243.022 54.969 243.349 54.4959 243.767 54.0941C244.186 53.6838 244.676 53.3699 245.237 53.1522C245.806 52.9262 246.425 52.8131 247.095 52.8131C247.773 52.8131 248.397 52.9304 248.966 53.1648C249.544 53.3908 250.034 53.7299 250.436 54.182L249.619 54.9731C249.284 54.6215 248.908 54.362 248.489 54.1945C248.07 54.0187 247.623 53.9308 247.145 53.9308C246.651 53.9308 246.191 54.0145 245.764 54.182C245.345 54.3494 244.981 54.5838 244.671 54.8852C244.362 55.1866 244.119 55.5466 243.943 55.9652C243.776 56.3755 243.692 56.8234 243.692 57.309C243.692 57.7945 243.776 58.2466 243.943 58.6652C244.119 59.0755 244.362 59.4313 244.671 59.7327C244.981 60.0341 245.345 60.2685 245.764 60.4359C246.191 60.6034 246.651 60.6871 247.145 60.6871C247.623 60.6871 248.07 60.6034 248.489 60.4359C248.908 60.2601 249.284 59.9922 249.619 59.6322L250.436 60.4234C250.034 60.8755 249.544 61.2187 248.966 61.4531C248.397 61.6876 247.769 61.8048 247.083 61.8048Z" fill="#69918F"/>
<path d="M230.602 58.7783V57.7359H233.98V58.7783H230.602Z" fill="#69918F"/>
<path d="M213.536 61.7043L217.517 52.9136H218.76L222.753 61.7043H221.435L217.881 53.6169H218.383L214.829 61.7043H213.536ZM215.231 59.5066L215.57 58.502H220.518L220.882 59.5066H215.231Z" fill="#69918F"/>
<path d="M207.8 61.7043V54.0062H204.786V52.9136H212.057V54.0062H209.043V61.7043H207.8Z" fill="#69918F"/>
<path d="M198.038 61.8048C196.882 61.8048 195.974 61.4741 195.313 60.8127C194.651 60.1513 194.321 59.1843 194.321 57.9117V52.9136H195.576V57.8615C195.576 58.841 195.79 59.5569 196.217 60.009C196.652 60.461 197.263 60.6871 198.05 60.6871C198.846 60.6871 199.457 60.461 199.884 60.009C200.319 59.5569 200.537 58.841 200.537 57.8615V52.9136H201.755V57.9117C201.755 59.1843 201.424 60.1513 200.763 60.8127C200.11 61.4741 199.201 61.8048 198.038 61.8048Z" fill="#69918F"/>
<path d="M184.099 61.7043V52.9136H190.303V54.0062H185.355V60.6117H190.479V61.7043H184.099ZM185.242 57.7736V56.7062H189.763V57.7736H185.242Z" fill="#69918F"/>
<path d="M173.275 61.7043V52.9136H176.704C177.474 52.9136 178.131 53.035 178.675 53.2778C179.219 53.5206 179.638 53.8722 179.931 54.3327C180.224 54.7931 180.37 55.3415 180.37 55.9778C180.37 56.6141 180.224 57.1624 179.931 57.6229C179.638 58.075 179.219 58.4266 178.675 58.6778C178.131 58.9206 177.474 59.042 176.704 59.042H173.966L174.531 58.4517V61.7043H173.275ZM174.531 58.5773L173.966 57.9494H176.666C177.47 57.9494 178.077 57.7778 178.487 57.4345C178.905 57.0913 179.115 56.6057 179.115 55.9778C179.115 55.3499 178.905 54.8643 178.487 54.521C178.077 54.1778 177.47 54.0062 176.666 54.0062H173.966L174.531 53.3783V58.5773Z" fill="#69918F"/>
<path d="M160.863 61.7043L164.843 52.9136H166.087L170.08 61.7043H168.762L165.208 53.6169H165.71L162.156 61.7043H160.863ZM162.558 59.5066L162.897 58.502H167.845L168.209 59.5066H162.558Z" fill="#69918F"/>
<path d="M151.186 61.7043V52.9136H154.614C155.753 52.9136 156.648 53.1857 157.301 53.7299C157.954 54.2657 158.281 55.015 158.281 55.9778C158.281 56.6141 158.134 57.1624 157.841 57.6229C157.548 58.075 157.13 58.4224 156.586 58.6652C156.041 58.908 155.384 59.0294 154.614 59.0294H151.876L152.441 58.4517V61.7043H151.186ZM157.063 61.7043L154.827 58.5145H156.171L158.432 61.7043H157.063ZM152.441 58.5773L151.876 57.962H154.576C155.38 57.962 155.987 57.7903 156.397 57.4471C156.816 57.0955 157.025 56.6057 157.025 55.9778C157.025 55.3499 156.816 54.8643 156.397 54.521C155.987 54.1778 155.38 54.0062 154.576 54.0062H151.876L152.441 53.3783V58.5773Z" fill="#69918F"/>
<path d="M140.889 61.7043V52.9136H147.093V54.0062H142.145V60.6117H147.268V61.7043H140.889ZM142.032 57.7736V56.7062H146.553V57.7736H142.032Z" fill="#69918F"/>
<path d="M133.38 61.7043V54.0062H130.366V52.9136H137.637V54.0062H134.623V61.7043H133.38Z" fill="#69918F"/>
<path d="M123.295 61.8048C122.625 61.8048 122.002 61.6917 121.424 61.4657C120.855 61.2397 120.361 60.9257 119.942 60.5238C119.523 60.1136 119.197 59.6364 118.962 59.0922C118.728 58.548 118.611 57.9536 118.611 57.309C118.611 56.6643 118.728 56.0699 118.962 55.5257C119.197 54.9815 119.523 54.5085 119.942 54.1066C120.361 53.6964 120.855 53.3783 121.424 53.1522C121.993 52.9262 122.617 52.8131 123.295 52.8131C123.965 52.8131 124.58 52.9262 125.141 53.1522C125.71 53.3699 126.204 53.6838 126.623 54.0941C127.05 54.4959 127.376 54.969 127.602 55.5131C127.837 56.0573 127.954 56.6559 127.954 57.309C127.954 57.962 127.837 58.5606 127.602 59.1048C127.376 59.649 127.05 60.1262 126.623 60.5364C126.204 60.9383 125.71 61.2522 125.141 61.4783C124.58 61.6959 123.965 61.8048 123.295 61.8048ZM123.295 60.6871C123.781 60.6871 124.229 60.6034 124.639 60.4359C125.057 60.2685 125.417 60.0341 125.719 59.7327C126.029 59.4229 126.267 59.0629 126.435 58.6527C126.61 58.2424 126.698 57.7945 126.698 57.309C126.698 56.8234 126.61 56.3755 126.435 55.9652C126.267 55.555 126.029 55.1992 125.719 54.8978C125.417 54.588 125.057 54.3494 124.639 54.182C124.229 54.0145 123.781 53.9308 123.295 53.9308C122.801 53.9308 122.345 54.0145 121.926 54.182C121.516 54.3494 121.156 54.588 120.846 54.8978C120.536 55.1992 120.294 55.555 120.118 55.9652C119.95 56.3755 119.867 56.8234 119.867 57.309C119.867 57.7945 119.95 58.2424 120.118 58.6527C120.294 59.0629 120.536 59.4229 120.846 59.7327C121.156 60.0341 121.516 60.2685 121.926 60.4359C122.345 60.6034 122.801 60.6871 123.295 60.6871Z" fill="#69918F"/>
<path d="M113.555 61.7043V52.9136H114.811V61.7043H113.555Z" fill="#69918F"/>
<path d="M106.434 61.8048C105.764 61.8048 105.123 61.7043 104.512 61.5034C103.901 61.2941 103.42 61.0262 103.068 60.6997L103.533 59.7201C103.868 60.0131 104.295 60.2559 104.814 60.4485C105.333 60.641 105.873 60.7373 106.434 60.7373C106.944 60.7373 107.359 60.6787 107.677 60.5615C107.995 60.4443 108.23 60.2852 108.38 60.0843C108.531 59.875 108.606 59.6406 108.606 59.381C108.606 59.0797 108.506 58.8369 108.305 58.6527C108.112 58.4685 107.857 58.322 107.539 58.2131C107.229 58.0959 106.886 57.9955 106.509 57.9117C106.132 57.828 105.751 57.7317 105.366 57.6229C104.99 57.5057 104.642 57.3592 104.324 57.1834C104.014 57.0076 103.763 56.7731 103.57 56.4801C103.378 56.1787 103.282 55.7936 103.282 55.3248C103.282 54.8727 103.399 54.4583 103.633 54.0815C103.876 53.6964 104.244 53.3908 104.738 53.1648C105.241 52.9304 105.877 52.8131 106.647 52.8131C107.158 52.8131 107.664 52.8801 108.167 53.0141C108.669 53.148 109.104 53.3406 109.473 53.5917L109.058 54.5964C108.682 54.3452 108.284 54.1652 107.865 54.0564C107.447 53.9392 107.041 53.8806 106.647 53.8806C106.153 53.8806 105.747 53.9434 105.429 54.069C105.111 54.1945 104.876 54.362 104.726 54.5713C104.583 54.7806 104.512 55.015 104.512 55.2745C104.512 55.5843 104.609 55.8313 104.801 56.0155C105.002 56.1997 105.257 56.3462 105.567 56.455C105.885 56.5638 106.233 56.6643 106.61 56.7564C106.986 56.8401 107.363 56.9364 107.74 57.0452C108.125 57.1541 108.472 57.2964 108.782 57.4722C109.1 57.648 109.356 57.8824 109.548 58.1755C109.741 58.4685 109.837 58.8452 109.837 59.3057C109.837 59.7494 109.716 60.1638 109.473 60.549C109.23 60.9257 108.853 61.2313 108.343 61.4657C107.84 61.6917 107.204 61.8048 106.434 61.8048Z" fill="#69918F"/>
<path d="M98.1006 61.7043V52.9136H99.3564V61.7043H98.1006Z" fill="#69918F"/>
<path d="M88.2454 61.7043V52.9136H94.4491V54.0062H89.5012V61.7043H88.2454ZM89.3756 58.1504V57.0703H93.9091V58.1504H89.3756Z" fill="#69918F"/>
</svg>
