<svg width="114" height="23" viewBox="0 0 114 23" fill="none" xmlns="http://www.w3.org/2000/svg">
<path d="M18.4777 12.0374C20.8346 14.8535 19.6821 19.359 16.2583 20.6888C15.9491 20.8087 15.1866 21.0449 14.8794 21.0449H1.58647V12.9318L5.30935 16.5843L14.7285 16.5572C15.4336 16.5005 15.7112 15.7005 15.3123 15.152L8.57718 8.39021H14.8278L18.4777 12.0374ZM18.1427 1.95894C18.4442 1.95026 18.9657 1.95895 19.1399 1.95893L19.1398 10.074L15.4303 6.46155L6.15219 6.44933C5.50471 6.47642 5.06115 6.98777 5.28719 7.62456C5.36581 7.84655 5.97305 8.45328 6.17817 8.67217C8.058 10.6785 10.1261 12.5206 12.0223 14.5132L12.0983 14.6667H5.9497L2.09806 10.8133C-0.353263 7.46951 1.48892 2.45308 5.74605 2.01319C9.87669 1.98206 14.1426 1.95894 18.1427 1.95894Z" fill="white"/>
<path d="M109.689 10.896V9.50465L109.653 9.27676V6.94989C109.653 6.41415 109.501 6.00235 109.197 5.71449C108.901 5.42663 108.457 5.2827 107.866 5.2827C107.458 5.2827 107.07 5.35067 106.702 5.4866C106.334 5.62254 106.022 5.80245 105.767 6.02634L105.383 5.39065C105.703 5.11878 106.086 4.91088 106.534 4.76695C106.982 4.61503 107.454 4.53906 107.95 4.53906C108.765 4.53906 109.393 4.74296 109.833 5.15076C110.28 5.55057 110.504 6.16227 110.504 6.98587V10.896H109.689ZM107.518 10.9559C107.046 10.9559 106.634 10.88 106.282 10.7281C105.938 10.5681 105.675 10.3522 105.491 10.0804C105.307 9.8005 105.215 9.48066 105.215 9.12083C105.215 8.79299 105.291 8.49714 105.443 8.23327C105.603 7.9614 105.859 7.7455 106.21 7.58558C106.57 7.41766 107.05 7.3337 107.65 7.3337H109.821V7.96939H107.674C107.066 7.96939 106.642 8.07734 106.402 8.29324C106.17 8.50913 106.054 8.777 106.054 9.09685C106.054 9.45667 106.194 9.74453 106.474 9.96043C106.754 10.1763 107.146 10.2843 107.65 10.2843C108.129 10.2843 108.541 10.1763 108.885 9.96043C109.237 9.73653 109.493 9.41669 109.653 9.00089L109.845 9.58861C109.685 10.0044 109.405 10.3362 109.005 10.5841C108.613 10.832 108.117 10.9559 107.518 10.9559Z" fill="white"/>
<path d="M100.528 10.9555C99.9922 10.9555 99.5244 10.8556 99.1246 10.6557C98.7248 10.4558 98.413 10.1559 98.1891 9.75612C97.9732 9.35632 97.8652 8.85656 97.8652 8.25685V4.59863H98.7168V8.1609C98.7168 8.83257 98.8807 9.34033 99.2086 9.68416C99.5444 10.02 100.012 10.1879 100.612 10.1879C101.052 10.1879 101.432 10.1 101.751 9.92404C102.079 9.74013 102.327 9.47626 102.495 9.13243C102.671 8.7886 102.759 8.3768 102.759 7.89703V4.59863H103.61V10.8956H102.795V9.16841L102.927 9.48026C102.727 9.94403 102.415 10.3079 101.991 10.5717C101.575 10.8276 101.088 10.9555 100.528 10.9555Z" fill="white"/>
<path d="M92.5429 10.9557C91.9432 10.9557 91.4034 10.8198 90.9237 10.5479C90.4519 10.2761 90.0801 9.90025 89.8082 9.42048C89.5363 8.93272 89.4004 8.37299 89.4004 7.7413C89.4004 7.10161 89.5363 6.54188 89.8082 6.06212C90.0801 5.58235 90.4519 5.21053 90.9237 4.94666C91.4034 4.67479 91.9432 4.53886 92.5429 4.53886C93.0946 4.53886 93.5864 4.6628 94.0181 4.91068C94.4579 5.15856 94.8058 5.52238 95.0616 6.00215C95.3255 6.47392 95.4574 7.05363 95.4574 7.7413C95.4574 8.42097 95.3295 9.00069 95.0736 9.48045C94.8178 9.96022 94.4699 10.328 94.0301 10.5839C93.5983 10.8318 93.1026 10.9557 92.5429 10.9557ZM92.6028 10.2001C93.0506 10.2001 93.4504 10.1002 93.8023 9.90025C94.1621 9.69235 94.4419 9.40449 94.6418 9.03667C94.8497 8.66085 94.9537 8.22906 94.9537 7.7413C94.9537 7.24554 94.8497 6.81375 94.6418 6.44593C94.4419 6.07811 94.1621 5.79425 93.8023 5.59434C93.4504 5.38644 93.0506 5.2825 92.6028 5.2825C92.1631 5.2825 91.7672 5.38644 91.4154 5.59434C91.0636 5.79425 90.7837 6.07811 90.5758 6.44593C90.3679 6.81375 90.264 7.24554 90.264 7.7413C90.264 8.22906 90.3679 8.66085 90.5758 9.03667C90.7837 9.40449 91.0636 9.69235 91.4154 9.90025C91.7672 10.1002 92.1631 10.2001 92.6028 10.2001ZM94.9777 10.8958V9.00069L95.0616 7.72931L94.9417 6.45792V1.99609H95.7933V10.8958H94.9777Z" fill="white"/>
<path d="M87.1477 10.8957V9.50434L87.1117 9.27645V6.94958C87.1117 6.41384 86.9597 6.00204 86.6559 5.71418C86.36 5.42632 85.9163 5.28239 85.3245 5.28239C84.9167 5.28239 84.5289 5.35036 84.1611 5.4863C83.7933 5.62223 83.4814 5.80214 83.2256 6.02603L82.8417 5.39034C83.1616 5.11847 83.5454 4.91058 83.9932 4.76665C84.441 4.61472 84.9127 4.53876 85.4085 4.53876C86.2241 4.53876 86.8518 4.74266 87.2916 5.15046C87.7394 5.55026 87.9633 6.16197 87.9633 6.98557V10.8957H87.1477ZM84.9767 10.9556C84.5049 10.9556 84.0931 10.8797 83.7413 10.7277C83.3975 10.5678 83.1336 10.3519 82.9497 10.0801C82.7658 9.8002 82.6738 9.48035 82.6738 9.12053C82.6738 8.79269 82.7498 8.49683 82.9017 8.23296C83.0616 7.96109 83.3175 7.7452 83.6693 7.58527C84.0292 7.41736 84.5089 7.3334 85.1086 7.3334H87.2796V7.96909H85.1326C84.5249 7.96909 84.1011 8.07704 83.8613 8.29293C83.6294 8.50883 83.5134 8.7767 83.5134 9.09654C83.5134 9.45636 83.6534 9.74422 83.9332 9.96012C84.2131 10.176 84.6049 10.284 85.1086 10.284C85.5884 10.284 86.0002 10.176 86.344 9.96012C86.6959 9.73623 86.9517 9.41638 87.1117 9.00059L87.3036 9.5883C87.1437 10.0041 86.8638 10.3359 86.464 10.5838C86.0722 10.8317 85.5764 10.9556 84.9767 10.9556ZM84.6529 3.61521L86.2961 2.12793H87.4355L85.4925 3.61521H84.6529Z" fill="white"/>
<path d="M75.1875 10.8959V2.5H78.33C79.0416 2.5 79.6533 2.61594 80.1651 2.84783C80.6768 3.07172 81.0686 3.39956 81.3405 3.83135C81.6204 4.25515 81.7603 4.7709 81.7603 5.3786C81.7603 5.97031 81.6204 6.48206 81.3405 6.91385C81.0686 7.33765 80.6768 7.66549 80.1651 7.89738C79.6533 8.12926 79.0416 8.24521 78.33 8.24521H75.6793L76.0751 7.82541V10.8959H75.1875ZM76.0751 7.89738L75.6793 7.46558H78.306C79.1456 7.46558 79.7813 7.28567 80.2131 6.92585C80.6528 6.55803 80.8727 6.04228 80.8727 5.3786C80.8727 4.70693 80.6528 4.18718 80.2131 3.81936C79.7813 3.45154 79.1456 3.26763 78.306 3.26763H75.6793L76.0751 2.84783V7.89738Z" fill="white"/>
<path d="M68.1582 10.8958V1.99609H70.0293V10.8958H68.1582Z" fill="white"/>
<path d="M64.0338 10.9914C63.2981 10.9914 62.6504 10.8475 62.0907 10.5597C61.539 10.2718 61.1112 9.87999 60.8073 9.38423C60.5035 8.88047 60.3516 8.30875 60.3516 7.66906C60.3516 7.02138 60.4995 6.44966 60.7953 5.9539C61.0992 5.45014 61.511 5.05833 62.0307 4.77847C62.5505 4.49061 63.1382 4.34668 63.7939 4.34668C64.4256 4.34668 64.9933 4.48261 65.4971 4.75448C66.0088 5.01835 66.4126 5.40217 66.7085 5.90592C67.0043 6.40168 67.1523 6.99739 67.1523 7.69305C67.1523 7.76502 67.1483 7.84898 67.1403 7.94493C67.1323 8.03289 67.1243 8.11685 67.1163 8.19681H61.8748V7.10534H66.1328L65.4131 7.42918C65.4131 7.09334 65.3451 6.80149 65.2092 6.55361C65.0733 6.30573 64.8854 6.11382 64.6455 5.97789C64.4056 5.83396 64.1257 5.76199 63.8059 5.76199C63.486 5.76199 63.2022 5.83396 62.9543 5.97789C62.7144 6.11382 62.5265 6.30972 62.3906 6.5656C62.2546 6.81348 62.1867 7.10934 62.1867 7.45317V7.74103C62.1867 8.09286 62.2626 8.40471 62.4146 8.67657C62.5745 8.94044 62.7944 9.14435 63.0742 9.28828C63.3621 9.42421 63.6979 9.49218 64.0817 9.49218C64.4256 9.49218 64.7254 9.4402 64.9813 9.33625C65.2452 9.2323 65.4851 9.07638 65.701 8.86848L66.6965 9.94795C66.4006 10.2838 66.0288 10.5437 65.581 10.7276C65.1332 10.9035 64.6175 10.9914 64.0338 10.9914Z" fill="white"/>
<path d="M55.5594 10.9912C55.0237 10.9912 54.5439 10.8872 54.1201 10.6793C53.7043 10.4715 53.3805 10.1556 53.1486 9.73181C52.9167 9.30002 52.8008 8.75229 52.8008 8.08861V4.44238H54.6719V7.81274C54.6719 8.34848 54.7838 8.74429 55.0077 9.00017C55.2396 9.24805 55.5634 9.37199 55.9792 9.37199C56.2671 9.37199 56.523 9.31201 56.7469 9.19207C56.9708 9.06414 57.1467 8.87223 57.2746 8.61635C57.4025 8.35248 57.4665 8.02464 57.4665 7.63283V4.44238H59.3376V10.8952H57.5625V9.12011L57.8863 9.63586C57.6704 10.0836 57.3506 10.4235 56.9268 10.6554C56.511 10.8793 56.0552 10.9912 55.5594 10.9912Z" fill="white"/>
<path d="M40.498 10.8955V4.44263H42.2852V6.20578L41.9493 5.69003C42.1732 5.25024 42.4891 4.9184 42.8969 4.69451C43.3127 4.46262 43.7844 4.34668 44.3122 4.34668C44.9039 4.34668 45.4197 4.49861 45.8594 4.80246C46.3072 5.09831 46.6031 5.55409 46.747 6.16979L46.0873 5.98988C46.3032 5.48613 46.6471 5.08632 47.1188 4.79046C47.5986 4.49461 48.1463 4.34668 48.762 4.34668C49.2738 4.34668 49.7256 4.45063 50.1174 4.65853C50.5172 4.85843 50.829 5.17028 51.0529 5.59407C51.2848 6.00987 51.4007 6.54561 51.4007 7.20129V10.8955H49.5297V7.48915C49.5297 6.9694 49.4217 6.58559 49.2058 6.33771C48.9899 6.08983 48.6861 5.96589 48.2943 5.96589C48.0224 5.96589 47.7785 6.02986 47.5626 6.1578C47.3467 6.27774 47.1788 6.46165 47.0589 6.70953C46.9389 6.95741 46.8789 7.27326 46.8789 7.65707V10.8955H45.0079V7.48915C45.0079 6.9694 44.8999 6.58559 44.684 6.33771C44.4761 6.08983 44.1763 5.96589 43.7844 5.96589C43.5126 5.96589 43.2687 6.02986 43.0528 6.1578C42.8369 6.27774 42.669 6.46165 42.549 6.70953C42.4291 6.95741 42.3691 7.27326 42.3691 7.65707V10.8955H40.498Z" fill="white"/>
<path d="M37.2919 10.8955V9.63611L37.172 9.36024V7.10534C37.172 6.70553 37.0481 6.39368 36.8002 6.16979C36.5603 5.9459 36.1885 5.83396 35.6847 5.83396C35.3409 5.83396 35.001 5.88993 34.6652 6.00187C34.3374 6.10582 34.0575 6.24975 33.8256 6.43366L33.1539 5.1263C33.5058 4.87842 33.9296 4.68651 34.4253 4.55058C34.9211 4.41465 35.4248 4.34668 35.9366 4.34668C36.9201 4.34668 37.6837 4.57857 38.2275 5.04234C38.7712 5.50612 39.0431 6.22976 39.0431 7.21328V10.8955H37.2919ZM35.3249 10.9914C34.8211 10.9914 34.3893 10.9075 34.0295 10.7396C33.6697 10.5637 33.3938 10.3278 33.2019 10.0319C33.01 9.73606 32.9141 9.40422 32.9141 9.0364C32.9141 8.65259 33.006 8.31675 33.1899 8.02889C33.3818 7.74103 33.6817 7.51714 34.0895 7.35721C34.4973 7.1893 35.029 7.10534 35.6847 7.10534H37.3999V8.19681H35.8886C35.4488 8.19681 35.145 8.26877 34.9771 8.4127C34.8171 8.55663 34.7372 8.73654 34.7372 8.95244C34.7372 9.19232 34.8291 9.38423 35.013 9.52816C35.2049 9.66409 35.4648 9.73206 35.7927 9.73206C36.1045 9.73206 36.3844 9.66009 36.6323 9.51616C36.8801 9.36424 37.06 9.14435 37.172 8.85649L37.4599 9.72007C37.3239 10.1359 37.076 10.4517 36.7162 10.6676C36.3564 10.8835 35.8926 10.9914 35.3249 10.9914Z" fill="white"/>
<path d="M28.8168 11.0392C28.1451 11.0392 27.5014 10.9513 26.8857 10.7754C26.27 10.5915 25.7743 10.3556 25.3984 10.0677L26.0581 8.60443C26.4179 8.8603 26.8417 9.0722 27.3295 9.24012C27.8253 9.40004 28.325 9.48 28.8288 9.48C29.2126 9.48 29.5204 9.44402 29.7523 9.37206C29.9922 9.29209 30.1681 9.18415 30.2801 9.04821C30.392 8.91228 30.448 8.75635 30.448 8.58044C30.448 8.35655 30.36 8.18063 30.1841 8.0527C30.0082 7.91676 29.7763 7.80882 29.4884 7.72886C29.2006 7.6409 28.8807 7.56094 28.5289 7.48897C28.1851 7.40901 27.8373 7.31306 27.4854 7.20111C27.1416 7.08917 26.8257 6.94524 26.5379 6.76932C26.25 6.59341 26.0141 6.36152 25.8302 6.07366C25.6543 5.7858 25.5664 5.41798 25.5664 4.9702C25.5664 4.49043 25.6943 4.05464 25.9502 3.66283C26.214 3.26303 26.6059 2.94718 27.1256 2.71529C27.6533 2.47541 28.313 2.35547 29.1046 2.35547C29.6324 2.35547 30.1521 2.41944 30.6639 2.54738C31.1756 2.66732 31.6274 2.85123 32.0192 3.09911L31.4195 4.57439C31.0277 4.3505 30.6359 4.18658 30.2441 4.08263C29.8523 3.97068 29.4685 3.91471 29.0926 3.91471C28.7168 3.91471 28.409 3.95869 28.1691 4.04665C27.9292 4.1346 27.7573 4.25055 27.6533 4.39448C27.5494 4.53041 27.4974 4.69033 27.4974 4.87424C27.4974 5.09014 27.5854 5.26605 27.7613 5.40199C27.9372 5.52992 28.1691 5.63387 28.4569 5.71384C28.7448 5.7938 29.0607 5.87376 29.4045 5.95372C29.7563 6.03368 30.1041 6.12563 30.448 6.22958C30.7998 6.33353 31.1197 6.47347 31.4075 6.64938C31.6954 6.82529 31.9273 7.05718 32.1032 7.34504C32.2871 7.6329 32.379 7.99672 32.379 8.43651C32.379 8.90828 32.2471 9.34007 31.9832 9.73188C31.7194 10.1237 31.3236 10.4395 30.7958 10.6794C30.2761 10.9193 29.6164 11.0392 28.8168 11.0392Z" fill="white"/>
<path d="M94.6602 20.9494V16.1445H96.534C97.1564 16.1445 97.646 16.2933 98.003 16.5907C98.3599 16.8836 98.5384 17.2931 98.5384 17.8194C98.5384 18.1672 98.4583 18.4669 98.2981 18.7186C98.138 18.9657 97.9092 19.1556 97.6117 19.2883C97.3143 19.421 96.955 19.4873 96.534 19.4873H95.0377L95.3466 19.1716V20.9494H94.6602ZM97.8726 20.9494L96.6507 19.2059H97.3852L98.6207 20.9494H97.8726ZM95.3466 19.2402L95.0377 18.9039H96.5135C96.9528 18.9039 97.2845 18.8101 97.5088 18.6225C97.7376 18.4303 97.852 18.1626 97.852 17.8194C97.852 17.4762 97.7376 17.2108 97.5088 17.0231C97.2845 16.8355 96.9528 16.7417 96.5135 16.7417H95.0377L95.3466 16.3985V19.2402Z" fill="white"/>
<path d="M88.4824 20.9494V16.1445H91.8733V16.7417H89.1688V20.3522H91.9694V20.9494H88.4824ZM89.1071 18.8009V18.2175H91.5781V18.8009H89.1071Z" fill="white"/>
<path d="M81.334 20.9494V16.1445H81.8968L85.0749 20.0914H84.7798V16.1445H85.4662V20.9494H84.9033L81.7252 17.0025H82.0204V20.9494H81.334Z" fill="white"/>
<path d="M76.6228 21.0045C76.2521 21.0045 75.9112 20.9451 75.6001 20.8261C75.2889 20.7025 75.0189 20.5309 74.7901 20.3113C74.5613 20.087 74.3828 19.8262 74.2547 19.5288C74.1266 19.2313 74.0625 18.9041 74.0625 18.5472C74.0625 18.1903 74.1266 17.8631 74.2547 17.5656C74.3828 17.2682 74.5613 17.0096 74.7901 16.79C75.0235 16.5658 75.2958 16.3942 75.6069 16.2752C75.9181 16.1516 76.2613 16.0898 76.6365 16.0898C77.0164 16.0898 77.3641 16.1516 77.6799 16.2752C77.9956 16.3987 78.2633 16.5841 78.483 16.8312L78.0574 17.2567C77.8606 17.0645 77.6456 16.925 77.4122 16.838C77.1834 16.7465 76.934 16.7007 76.664 16.7007C76.3894 16.7007 76.1332 16.7465 75.8952 16.838C75.6618 16.9296 75.4582 17.0577 75.2843 17.2224C75.115 17.3872 74.9823 17.5839 74.8862 17.8127C74.7947 18.037 74.7489 18.2818 74.7489 18.5472C74.7489 18.808 74.7947 19.0528 74.8862 19.2817C74.9823 19.5059 75.115 19.7026 75.2843 19.872C75.4582 20.0367 75.6618 20.1648 75.8952 20.2564C76.1286 20.3479 76.3826 20.3936 76.6571 20.3936C76.9134 20.3936 77.1582 20.3547 77.3916 20.2769C77.6295 20.1946 77.8492 20.0596 78.0505 19.872L78.4418 20.3936C78.2038 20.595 77.9247 20.7483 77.6044 20.8535C77.2886 20.9542 76.9614 21.0045 76.6228 21.0045ZM78.4418 20.3936L77.7828 20.3044V18.5197H78.4418V20.3936Z" fill="white"/>
<path d="M70.75 20.9494V16.1445H71.4364V20.9494H70.75Z" fill="white"/>
<path d="M66.3083 21.0045C65.9422 21.0045 65.5922 20.9496 65.2581 20.8398C64.9241 20.7254 64.6609 20.579 64.4688 20.4005L64.7227 19.8651C64.9058 20.0253 65.1391 20.158 65.4229 20.2632C65.7066 20.3685 66.0017 20.4211 66.3083 20.4211C66.5875 20.4211 66.814 20.3891 66.9879 20.325C67.1618 20.2609 67.2899 20.174 67.3723 20.0642C67.4546 19.9498 67.4958 19.8216 67.4958 19.6798C67.4958 19.515 67.4409 19.3823 67.3311 19.2817C67.2258 19.181 67.0863 19.1009 66.9124 19.0414C66.7431 18.9773 66.5554 18.9224 66.3495 18.8767C66.1436 18.8309 65.9354 18.7783 65.7249 18.7188C65.519 18.6547 65.329 18.5746 65.1552 18.4786C64.9858 18.3825 64.8486 18.2543 64.7433 18.0942C64.6381 17.9294 64.5854 17.7189 64.5854 17.4627C64.5854 17.2156 64.6495 16.989 64.7776 16.7831C64.9103 16.5726 65.1117 16.4056 65.3817 16.282C65.6562 16.1539 66.004 16.0898 66.425 16.0898C66.7042 16.0898 66.981 16.1265 67.2556 16.1997C67.5301 16.2729 67.7681 16.3781 67.9694 16.5154L67.7429 17.0645C67.537 16.9273 67.3196 16.8289 67.0908 16.7694C66.862 16.7053 66.6401 16.6733 66.425 16.6733C66.155 16.6733 65.9331 16.7076 65.7592 16.7763C65.5853 16.8449 65.4572 16.9364 65.3748 17.0508C65.297 17.1652 65.2581 17.2933 65.2581 17.4352C65.2581 17.6045 65.3107 17.7395 65.416 17.8402C65.5258 17.9409 65.6654 18.0209 65.8347 18.0804C66.0086 18.1399 66.1985 18.1948 66.4044 18.2452C66.6103 18.2909 66.8163 18.3436 67.0222 18.403C67.2327 18.4625 67.4226 18.5403 67.5919 18.6364C67.7658 18.7325 67.9054 18.8607 68.0106 19.0208C68.1159 19.181 68.1685 19.3869 68.1685 19.6386C68.1685 19.8811 68.1021 20.1076 67.9694 20.3181C67.8367 20.5241 67.6308 20.6911 67.3517 20.8192C67.0771 20.9428 66.7293 21.0045 66.3083 21.0045Z" fill="white"/>
<path d="M58.7305 20.9494V16.1445H62.1213V16.7417H59.4169V20.3522H62.2174V20.9494H58.7305ZM59.3551 18.8009V18.2175H61.8262V18.8009H59.3551Z" fill="white"/>
<path d="M51.4805 20.9494V16.1445H53.5054C54.0179 16.1445 54.4686 16.2452 54.8576 16.4466C55.2512 16.6479 55.5555 16.9293 55.7705 17.2908C55.9902 17.6523 56.1 18.0711 56.1 18.547C56.1 19.0229 55.9902 19.4416 55.7705 19.8031C55.5555 20.1646 55.2512 20.446 54.8576 20.6474C54.4686 20.8487 54.0179 20.9494 53.5054 20.9494H51.4805ZM52.1669 20.3522H53.4642C53.8623 20.3522 54.2055 20.2767 54.4938 20.1257C54.7867 19.9747 55.0132 19.7642 55.1734 19.4942C55.3335 19.2196 55.4136 18.9039 55.4136 18.547C55.4136 18.1855 55.3335 17.8697 55.1734 17.5997C55.0132 17.3297 54.7867 17.1192 54.4938 16.9682C54.2055 16.8172 53.8623 16.7417 53.4642 16.7417H52.1669V20.3522Z" fill="white"/>
<path d="M41.2852 20.9494V16.1445H43.4405C43.9942 16.1445 44.4198 16.2566 44.7172 16.4809C45.0147 16.7005 45.1634 17.0025 45.1634 17.3869C45.1634 17.6478 45.1039 17.8674 44.9849 18.0459C44.8705 18.2244 44.7149 18.3616 44.5181 18.4577C44.3214 18.5538 44.1086 18.6019 43.8798 18.6019L44.0033 18.396C44.2779 18.396 44.5204 18.444 44.7309 18.5401C44.9414 18.6362 45.1085 18.7781 45.232 18.9657C45.3556 19.1487 45.4173 19.3775 45.4173 19.6521C45.4173 20.0639 45.2618 20.3843 44.9506 20.6131C44.644 20.8373 44.1864 20.9494 43.5778 20.9494H41.2852ZM41.9716 20.3934H43.5503C43.9301 20.3934 44.2207 20.3293 44.4221 20.2012C44.6234 20.0731 44.7241 19.8717 44.7241 19.5972C44.7241 19.318 44.6234 19.1144 44.4221 18.9863C44.2207 18.8581 43.9301 18.7941 43.5503 18.7941H41.9098V18.2381H43.3787C43.7265 18.2381 43.9965 18.174 44.1887 18.0459C44.3809 17.9178 44.477 17.7256 44.477 17.4693C44.477 17.213 44.3809 17.0208 44.1887 16.8927C43.9965 16.7646 43.7265 16.7005 43.3787 16.7005H41.9716V20.3934Z" fill="white"/>
<path d="M35.1074 20.9494V16.1445H38.4983V16.7417H35.7938V20.3522H38.5944V20.9494H35.1074ZM35.7321 18.8009V18.2175H38.2031V18.8009H35.7321Z" fill="white"/>
<path d="M27.0046 20.9494L25.3984 16.1445H26.1054L27.5812 20.5787H27.2243L28.755 16.1445H29.3865L30.8829 20.5787H30.5397L32.036 16.1445H32.6881L31.0819 20.9494H30.3612L28.9609 16.8378H29.1462L27.7391 20.9494H27.0046Z" fill="white"/>
</svg>
