<svg width="101" height="101" viewBox="0 0 101 101" fill="none" xmlns="http://www.w3.org/2000/svg">
<path d="M25.7903 31.339C25.9018 31.2131 26.4349 31.8016 26.5227 31.8996C28.4165 34.0264 30.4793 37.3455 32.0286 39.7921C43.2517 57.5119 50.7368 79.9401 36.9153 98.591C36.6035 99.0119 35.5398 100.589 35.0735 100.583C34.9361 100.581 34.8544 100.524 34.8127 100.395C34.6763 99.9709 35.7848 97.0067 35.9797 96.3039C41.3594 76.8435 35.92 57.18 28.802 38.966C27.809 36.4249 26.5862 33.9476 25.7913 31.339H25.7903ZM74.7649 26.9474C74.5937 28.562 74.1374 30.1411 73.884 31.7511C72.506 40.5208 73.4964 48.2966 76.8528 56.4425C77.3787 57.7205 78.632 59.8633 78.9416 61.006C79.0091 61.2568 79.0299 61.3641 78.9309 61.6251C76.9403 60.6782 75.0367 58.8886 73.6428 57.175C67.1812 49.2259 68.1807 38.5138 72.6799 29.8712C72.938 29.3754 74.0459 27.2917 74.3645 27.0519C74.5016 26.9485 74.5918 26.9216 74.7649 26.9474ZM61.5344 3.41519C61.7661 3.35357 61.9124 3.54424 62.0227 3.71304C62.3345 4.19272 62.5839 5.10378 62.8811 5.67007C64.9471 9.60602 67.6097 12.5208 71.9465 13.8302C75.9897 15.0496 78.9717 15.394 82.5657 17.9611C90.5517 23.665 92.0185 35.6372 85.2903 42.9376C84.9671 43.2889 84.1406 44.2797 83.9954 43.3429C84.7745 40.9212 85.55 38.4476 85.7932 35.8986C86.3595 29.9763 83.9106 25.6317 78.9172 22.6232C73.6141 19.4289 66.2049 18.604 62.8069 12.8371C61.4085 10.4647 60.8607 7.20994 61.2502 4.48745C61.2784 4.29042 61.3578 3.4633 61.5334 3.41714L61.5344 3.41519ZM38.6438 0.844875C38.7177 0.798936 38.9881 0.796728 39.0618 0.839992C39.3329 1.00972 39.343 4.51374 39.3059 5.05093C38.6855 13.9142 30.6653 16.7787 24.0989 20.2443C16.5227 24.2424 12.8041 29.0061 14.0998 38.0177C14.3734 39.9228 15.0349 41.7281 15.3186 43.6095C14.994 43.9508 13.6838 42.1498 13.4924 41.8898C6.65961 32.5503 11.5723 19.878 21.2844 14.9533C24.4278 13.3592 28.1014 12.7208 31.0725 10.8937C34.8364 8.57772 37.072 4.88685 38.6438 0.844875Z" fill="#1E5250"/>
<path d="M53.8949 16.0394C54.1954 15.9392 54.4226 16.094 54.389 16.4124C52.7688 24.018 53.3132 31.7606 56.6527 38.8089C58.3833 42.4613 60.9346 45.5612 62.6234 49.2767C68.1752 61.4828 66.897 76.9223 59.4974 88.0745C58.4154 89.7049 56.5734 92.2317 55.1762 93.5501C54.8114 93.8945 54.2061 94.2387 54.2914 93.4603C60.5425 80.2892 63.5279 65.6301 57.0707 51.9017C52.2968 41.7504 46.1481 32.1765 51.2474 20.6009C51.5139 19.9973 53.5274 16.1627 53.8939 16.0394H53.8949ZM50.976 84.5081C53.7772 84.0544 54.1221 88.3902 51.3851 88.5276C48.9927 88.647 48.5725 84.898 50.976 84.5081ZM53.6771 76.7396C56.4841 76.2847 57.0113 80.5418 54.3158 80.8694C51.6013 81.1993 51.1633 77.1474 53.6771 76.7396ZM54.1283 68.4065C57.712 67.7896 58.1569 72.69 55.2015 73.1946C51.8474 73.7666 51.3664 68.8828 54.1283 68.4065ZM54.3627 60.8606C57.542 60.6089 57.9569 65.5298 54.7797 65.7933C51.4135 66.0721 51.2766 61.105 54.3627 60.8606ZM52.2172 53.5462C55.4923 53.042 56.0686 57.8413 53.1762 58.3333C49.7095 58.9232 49.2256 54.0067 52.2172 53.5462ZM49.181 45.8919C52.6001 45.4711 53.1709 50.7075 50.0414 51.1448C46.2301 51.6763 45.8156 46.3074 49.181 45.8919ZM46.5814 38.5872C49.835 38.5753 49.8775 43.9868 46.224 43.6097C43.2472 43.3022 43.3467 38.5985 46.5814 38.5872ZM44.1156 31.5862C46.5171 31.3464 47.5014 34.9917 45.2308 35.9749C41.9961 37.3733 40.5693 31.9412 44.1156 31.5862ZM43.183 25.0335C45.2479 23.4854 47.6548 26.3895 45.9008 28.1448C43.8877 30.1591 40.8515 26.7821 43.183 25.0335ZM46.9232 17.6292C49.7561 17.1462 50.2817 21.1915 47.7709 21.6272C44.9113 22.1235 44.4768 18.0459 46.9232 17.6292ZM48.1185 12.2366C49.866 10.3717 52.7568 13.1928 50.8432 15.0179C49.0192 16.7574 46.4477 14.0212 48.1185 12.2366ZM50.307 5.58037C52.3855 5.35181 53.3064 8.22373 51.4633 9.21904C48.6622 10.7317 47.2132 5.91936 50.307 5.58037Z" fill="#609696"/>
</svg>
