<svg width="179" height="179" viewBox="0 0 179 179" fill="none" xmlns="http://www.w3.org/2000/svg">
<path d="M21.2844 125.683C21.4191 125.936 21.4836 126.208 21.4777 126.501C21.4719 126.794 21.3969 127.065 21.2528 127.316C21.0949 127.562 20.8717 127.763 20.5834 127.917C20.304 128.066 20.0225 128.135 19.7388 128.124C19.4414 128.11 19.1694 128.023 18.9229 127.865C18.6764 127.707 18.4858 127.502 18.3511 127.25C18.2067 126.98 18.1399 126.703 18.1505 126.419C18.1564 126.126 18.2382 125.857 18.3962 125.61C18.5403 125.36 18.752 125.16 19.0313 125.01C19.3197 124.856 19.6126 124.787 19.9101 124.802C20.1938 124.812 20.4588 124.897 20.7053 125.055C20.947 125.203 21.14 125.413 21.2844 125.683Z" fill="#263333" fill-opacity="0.6"/>
<path d="M37.5123 143.051L27.831 145.906L26.9814 144.921L31.2134 135.752L32.1144 136.796L28.139 145.137L27.7958 144.739L36.6283 142.027L37.5123 143.051ZM34.6135 143.21L33.5863 143.628L30.2051 139.71L30.7518 138.736L34.6135 143.21Z" fill="#263333" fill-opacity="0.6"/>
<path d="M47.7175 151.189L41.9835 158.377L41.1415 157.705L41.0976 148.008L41.5391 148.361L36.829 154.265L35.8022 153.445L41.5362 146.258L42.3782 146.93L42.4222 156.626L41.9806 156.274L46.6907 150.37L47.7175 151.189Z" fill="#263333" fill-opacity="0.6"/>
<path d="M56.8099 156.118C57.881 156.678 58.5629 157.424 58.8557 158.358C59.1485 159.291 58.9867 160.348 58.3704 161.527L55.9496 166.161L54.7854 165.553L57.1819 160.966C57.6563 160.058 57.8051 159.291 57.6282 158.665C57.4436 158.035 56.9865 157.529 56.257 157.148C55.5197 156.763 54.8436 156.676 54.2288 156.889C53.6063 157.097 53.0578 157.655 52.5833 158.563L50.1869 163.15L49.0576 162.56L51.4784 157.927C52.0948 156.747 52.8697 156.011 53.8032 155.718C54.7289 155.421 55.7311 155.554 56.8099 156.118Z" fill="#263333" fill-opacity="0.6"/>
<path d="M70.9458 161.672L68.151 170.432L66.8996 170.032L69.3471 162.362L64.6045 160.848L64.9519 159.76L70.9458 161.672Z" fill="#263333" fill-opacity="0.6"/>
<path d="M81.4774 163.21C82.1719 163.302 82.803 163.505 83.3708 163.819C83.9299 164.132 84.3988 164.526 84.7775 165C85.155 165.483 85.4278 166.023 85.5959 166.619C85.764 167.216 85.8036 167.848 85.7148 168.517C85.626 169.185 85.4226 169.785 85.1046 170.317C84.7866 170.849 84.3829 171.295 83.8935 171.654C83.403 172.021 82.847 172.283 82.2256 172.439C81.6042 172.595 80.942 172.626 80.2389 172.533C79.5444 172.441 78.922 172.239 78.3715 171.927C77.8112 171.623 77.3424 171.229 76.9648 170.746C76.5775 170.271 76.3041 169.735 76.1447 169.14C75.9766 168.544 75.9376 167.907 76.0275 167.23C76.1175 166.553 76.3214 165.948 76.6395 165.416C76.9488 164.883 77.3531 164.433 77.8523 164.067C78.3416 163.708 78.897 163.45 79.5184 163.294C80.13 163.146 80.783 163.118 81.4774 163.21ZM81.3235 164.369C80.82 164.302 80.3441 164.327 79.8957 164.444C79.4386 164.56 79.0331 164.754 78.679 165.025C78.3152 165.303 78.0182 165.644 77.7881 166.046C77.5493 166.447 77.3965 166.899 77.3296 167.403C77.2627 167.906 77.2921 168.383 77.4179 168.832C77.535 169.281 77.7334 169.682 78.013 170.038C78.2829 170.4 78.6233 170.697 79.0342 170.928C79.4365 171.159 79.8894 171.307 80.3928 171.374C80.905 171.442 81.3896 171.418 81.8467 171.302C82.2951 171.185 82.7012 170.987 83.065 170.709C83.4277 170.439 83.7285 170.103 83.9673 169.702C84.1974 169.3 84.3459 168.847 84.4128 168.344C84.4797 167.84 84.4546 167.364 84.3375 166.916C84.2117 166.466 84.0095 166.06 83.731 165.696C83.4514 165.341 83.1104 165.048 82.7081 164.818C82.2972 164.587 81.8356 164.437 81.3235 164.369Z" fill="#263333" fill-opacity="0.6"/>
<path d="M94.1351 163.565C94.8346 163.528 95.4877 163.608 96.0941 163.805C96.6923 164.011 97.2208 164.312 97.6799 164.709C98.1306 165.115 98.4931 165.596 98.7674 166.152C99.0418 166.708 99.1966 167.327 99.232 168.009C99.2673 168.691 99.1773 169.323 98.9619 169.904C98.7466 170.485 98.4311 170.997 98.0156 171.439C97.6006 171.89 97.106 172.245 96.5319 172.502C95.9495 172.769 95.3085 172.921 94.6089 172.957C93.9006 172.994 93.2427 172.905 92.6354 172.691C92.0197 172.486 91.4898 172.159 91.0455 171.708L91.8553 170.838C92.2242 171.187 92.6317 171.438 93.078 171.59C93.5248 171.751 93.9974 171.818 94.4959 171.793C95.0118 171.766 95.4883 171.653 95.9252 171.455C96.3534 171.258 96.7211 170.993 97.0283 170.662C97.3356 170.33 97.5697 169.941 97.7307 169.494C97.8833 169.057 97.9465 168.584 97.9202 168.077C97.8939 167.57 97.782 167.102 97.5844 166.674C97.3786 166.255 97.1057 165.896 96.7658 165.598C96.4259 165.3 96.0328 165.075 95.5865 164.923C95.1314 164.771 94.6459 164.709 94.13 164.735C93.6315 164.761 93.1682 164.873 92.74 165.07C92.3123 165.277 91.9333 165.577 91.603 165.971L90.7075 165.189C91.1028 164.695 91.5958 164.31 92.1865 164.034C92.7684 163.758 93.418 163.602 94.1351 163.565Z" fill="#263333" fill-opacity="0.6"/>
<path d="M120.896 157L123.996 165.657L122.982 166.02L116.757 160.869L117.301 160.674L115.81 168.588L114.796 168.951L111.684 160.299L112.871 159.874L115.314 166.659L115.03 166.761L116.388 159.801L116.957 159.597L122.449 164.104L122.14 164.214L119.709 157.426L120.896 157Z" fill="#263333" fill-opacity="0.6"/>
<path d="M131.81 150.767L136.54 158.652L130.976 161.99L130.388 161.01L134.826 158.347L131.272 152.423L126.676 155.18L126.088 154.2L131.81 150.767ZM132.9 154.908L133.475 155.865L129.42 158.297L128.845 157.34L132.9 154.908Z" fill="#263333" fill-opacity="0.6"/>
<path d="M147.971 135.756L151.771 145.107L150.876 146.05L141.332 142.747L142.282 141.747L150.975 144.876L150.614 145.257L147.039 136.737L147.971 135.756ZM148.417 138.625L148.934 139.605L145.371 143.358L144.347 142.911L148.417 138.625Z" fill="#263333" fill-opacity="0.6"/>
<path d="M152.365 129.279L159.027 133.801L160.797 131.192L161.743 131.834L157.472 138.127L156.526 137.485L158.297 134.876L151.634 130.355L152.365 129.279Z" fill="#263333" fill-opacity="0.6"/>
<path d="M157.4 119.566C157.7 118.934 158.083 118.373 158.547 117.886C159.019 117.403 159.488 117.068 159.954 116.882L160.671 117.76C160.244 117.945 159.823 118.24 159.408 118.644C158.993 119.048 158.66 119.515 158.409 120.045C158.179 120.528 158.049 120.946 158.017 121.299C157.985 121.652 158.03 121.945 158.152 122.177C158.283 122.414 158.47 122.59 158.716 122.706C159 122.842 159.275 122.856 159.539 122.748C159.799 122.649 160.052 122.473 160.298 122.222C160.548 121.982 160.796 121.702 161.045 121.384C161.293 121.065 161.554 120.749 161.83 120.434C162.11 120.13 162.404 119.868 162.713 119.646C163.018 119.432 163.352 119.3 163.715 119.249C164.087 119.203 164.494 119.284 164.937 119.495C165.364 119.698 165.703 119.994 165.954 120.385C166.209 120.787 166.332 121.272 166.324 121.84C166.32 122.42 166.146 123.074 165.8 123.801C165.571 124.284 165.281 124.733 164.929 125.147C164.577 125.562 164.2 125.887 163.797 126.122L163.034 125.28C163.44 125.036 163.788 124.741 164.079 124.395C164.377 124.052 164.615 123.694 164.792 123.323C165.013 122.856 165.136 122.444 165.16 122.087C165.184 121.73 165.131 121.434 165.001 121.197C164.867 120.969 164.677 120.797 164.432 120.68C164.139 120.541 163.863 120.521 163.602 120.621C163.338 120.728 163.085 120.903 162.843 121.147C162.598 121.399 162.347 121.682 162.091 121.997C161.843 122.315 161.583 122.628 161.311 122.935C161.036 123.25 160.745 123.515 160.44 123.729C160.131 123.95 159.795 124.087 159.432 124.137C159.069 124.188 158.67 124.11 158.235 123.903C157.815 123.704 157.478 123.403 157.223 123.001C156.976 122.603 156.857 122.11 156.864 121.522C156.876 120.946 157.054 120.294 157.4 119.566Z" fill="#263333" fill-opacity="0.6"/>
<path d="M161.222 109.764L169.975 112.578L169.573 113.828L160.82 111.015L161.222 109.764Z" fill="#263333" fill-opacity="0.6"/>
<path d="M163.464 98.3974L172.512 100.036L172.278 101.328L164.355 99.8935L163.468 104.792L162.343 104.588L163.464 98.3974Z" fill="#263333" fill-opacity="0.6"/>
<path d="M163.845 83.6166L172.997 87.8726L172.984 89.1729L163.748 93.2572L163.762 91.8781L172.258 88.2461L172.253 88.7715L163.831 84.9694L163.845 83.6166ZM166.126 85.4128L167.173 85.778L167.121 90.9529L166.066 91.3233L166.126 85.4128Z" fill="#263333" fill-opacity="0.6"/>
<path d="M163.008 77.1929L172.126 76.0068L172.295 77.3093L163.177 78.4955L163.008 77.1929Z" fill="#263333" fill-opacity="0.6"/>
<path d="M160.68 68.469C160.493 67.794 160.43 67.1391 160.49 66.5045C160.561 65.876 160.74 65.2946 161.028 64.7603C161.327 64.2321 161.718 63.7739 162.201 63.3855C162.684 62.9971 163.254 62.7116 163.912 62.529C164.571 62.3464 165.207 62.2972 165.821 62.3813C166.435 62.4655 167.003 62.6623 167.525 62.9718C168.055 63.2791 168.509 63.6849 168.885 64.1894C169.272 64.7 169.559 65.2928 169.746 65.9679C169.936 66.6513 169.992 67.3127 169.915 67.9521C169.849 68.5975 169.644 69.1859 169.301 69.7173L168.275 69.1158C168.536 68.68 168.692 68.2277 168.744 67.759C168.804 67.2879 168.767 66.8119 168.634 66.331C168.496 65.8331 168.283 65.3924 167.995 65.0089C167.709 64.6338 167.371 64.3323 166.98 64.1043C166.59 63.8764 166.159 63.7323 165.688 63.6722C165.228 63.6181 164.753 63.6589 164.264 63.7947C163.774 63.9305 163.342 64.1412 162.967 64.427C162.603 64.7189 162.312 65.0631 162.095 65.4596C161.877 65.856 161.743 66.2886 161.691 66.7573C161.642 67.2345 161.686 67.722 161.824 68.2199C161.958 68.7008 162.167 69.1288 162.453 69.5039C162.747 69.8767 163.123 70.1815 163.579 70.4184L163.01 71.4623C162.442 71.1836 161.959 70.786 161.561 70.2693C161.166 69.761 160.872 69.161 160.68 68.469Z" fill="#263333" fill-opacity="0.6"/>
<path d="M154.488 53.0431L162.785 49.0814L165.581 54.9368L164.55 55.4292L162.32 50.7591L156.085 53.7361L158.394 58.5722L157.363 59.0645L154.488 53.0431ZM158.713 52.3503L159.72 51.8692L161.758 56.1364L160.75 56.6174L158.713 52.3503Z" fill="#263333" fill-opacity="0.6"/>
<path d="M147.083 42.2097L154.578 36.8852L156.655 39.8086C157.122 40.4654 157.416 41.0994 157.539 41.7105C157.661 42.3215 157.615 42.8915 157.4 43.4202C157.185 43.949 156.806 44.4061 156.263 44.7915C155.721 45.1769 155.164 45.3841 154.594 45.4131C154.031 45.4371 153.478 45.2931 152.934 44.9812C152.397 44.6642 151.896 44.1773 151.429 43.5206L149.771 41.1861L150.617 41.3105L147.843 43.2805L147.083 42.2097ZM150.51 41.3865L150.703 40.5243L152.338 42.8267C152.825 43.512 153.339 43.9256 153.88 44.0675C154.426 44.2166 154.967 44.1009 155.503 43.7206C156.038 43.3403 156.325 42.8677 156.364 42.3029C156.409 41.7451 156.187 41.1236 155.701 40.4383L154.065 38.1359L154.943 38.2375L150.51 41.3865Z" fill="#263333" fill-opacity="0.6"/>
<path d="M140.629 35.5765C140.133 35.081 139.734 34.533 139.431 33.9323C139.134 33.3254 138.976 32.7712 138.958 32.2697L140.026 31.8891C140.057 32.3535 140.193 32.8489 140.434 33.3752C140.675 33.9016 141.004 34.3722 141.418 34.7872C141.796 35.1649 142.146 35.4282 142.468 35.5768C142.79 35.7255 143.081 35.7813 143.341 35.7442C143.607 35.7009 143.836 35.5833 144.028 35.3914C144.251 35.1685 144.356 34.9147 144.344 34.6298C144.338 34.3512 144.257 34.054 144.103 33.7381C143.96 33.4223 143.781 33.0941 143.564 32.7535C143.348 32.4129 143.137 32.06 142.933 31.6946C142.741 31.3292 142.592 30.9639 142.487 30.5985C142.388 30.2394 142.376 29.8803 142.45 29.5211C142.531 29.1558 142.745 28.7998 143.091 28.4532C143.426 28.1189 143.819 27.8991 144.271 27.7939C144.735 27.6888 145.234 27.7353 145.766 27.9335C146.311 28.1318 146.868 28.5158 147.438 29.0856C147.816 29.4633 148.141 29.8875 148.413 30.3582C148.685 30.8288 148.865 31.2932 148.951 31.7515L147.902 32.1878C147.809 31.7234 147.648 31.2961 147.419 30.906C147.196 30.5096 146.939 30.1659 146.648 29.8749C146.283 29.5095 145.936 29.2555 145.608 29.1131C145.28 28.9706 144.983 28.921 144.717 28.9643C144.457 29.0138 144.231 29.1345 144.039 29.3264C143.809 29.5555 143.698 29.8093 143.704 30.0879C143.716 30.3728 143.797 30.67 143.945 30.9796C144.1 31.2954 144.283 31.6267 144.493 31.9735C144.71 32.3141 144.917 32.664 145.115 33.0232C145.319 33.3885 145.471 33.7508 145.57 34.1099C145.675 34.4753 145.691 34.8375 145.616 35.1966C145.542 35.5557 145.334 35.9055 144.994 36.246C144.666 36.5741 144.269 36.7908 143.805 36.896C143.347 36.9949 142.842 36.9422 142.291 36.7378C141.752 36.5333 141.198 36.1462 140.629 35.5765Z" fill="#263333" fill-opacity="0.6"/>
<path d="M128.723 26.0958L134.082 18.6248L139.354 22.4071L138.688 23.3356L134.483 20.319L130.456 25.9329L134.811 29.0567L134.144 29.9852L128.723 26.0958ZM132.09 23.452L132.741 22.5448L136.583 25.301L135.933 26.2082L132.09 23.452Z" fill="#263333" fill-opacity="0.6"/>
<path d="M107.991 17.1121L114.968 9.85556L116.944 10.5692L117.689 20.6135L115.589 19.8552L115.182 11.0783L115.973 11.3637L110.042 17.8525L107.991 17.1121ZM110.587 15.9547L111.667 14.6269L116.115 16.2326L116.11 17.9485L110.587 15.9547Z" fill="#263333" fill-opacity="0.6"/>
<path d="M99.768 15.6866L101.06 8.33869L98.1626 7.82904L98.4629 6.12143L106.354 7.50932L106.054 9.21693L103.156 8.70728L101.864 16.0552L99.768 15.6866Z" fill="#263333" fill-opacity="0.6"/>
<path d="M88.0326 15.288C86.7279 15.2824 85.7093 14.9147 84.9768 14.1847C84.2444 13.4548 83.881 12.4155 83.8868 11.067L83.9088 5.91815L86.0366 5.92723L86.015 10.9973C86.0112 11.873 86.1881 12.5042 86.5454 12.891C86.9028 13.2779 87.4055 13.4726 88.0535 13.4754C88.7015 13.4782 89.2058 13.2877 89.5665 12.9039C89.9271 12.5202 90.1093 11.8905 90.1131 11.0148L90.1347 5.94473L92.2363 5.95369L92.2143 11.1026C92.2086 12.4511 91.8363 13.4872 91.0977 14.2108C90.359 14.9345 89.3373 15.2935 88.0326 15.288Z" fill="#263333" fill-opacity="0.6"/>
<path d="M71.5112 17.0675L69.9468 8.00702L76.7939 6.82477L77.0844 8.50742L72.3212 9.32986L73.3046 15.025L78.236 14.1735L78.5266 15.8562L71.5112 17.0675ZM72.7872 12.955L72.5056 11.3241L76.8675 10.5709L77.1491 12.2018L72.7872 12.955Z" fill="#263333" fill-opacity="0.6"/>
<path d="M58.9723 21.4022L55.8433 12.7565L59.5856 11.4021C60.3596 11.122 61.0728 11.0082 61.7251 11.0608C62.3744 11.1052 62.9363 11.3069 63.4108 11.666C63.8853 12.0251 64.2403 12.5299 64.4757 13.1804C64.7082 13.8226 64.757 14.4335 64.6222 15.0131C64.4874 15.5927 64.1862 16.1115 63.7187 16.5694C63.2482 17.019 62.6259 17.3839 61.8519 17.664L59.2211 18.6162L59.7841 17.3927L60.9731 20.6781L58.9723 21.4022ZM59.8646 17.615L58.6311 16.9858L61.1507 16.0739C61.7683 15.8504 62.1817 15.5518 62.391 15.1781C62.6003 14.8043 62.62 14.3828 62.4501 13.9134C62.2773 13.4359 61.9909 13.1205 61.5909 12.9672C61.1908 12.814 60.6821 12.8491 60.0645 13.0726L57.5449 13.9845L58.09 12.7117L59.8646 17.615Z" fill="#263333" fill-opacity="0.6"/>
<path d="M45.8983 28.8271L44.7896 18.8219L46.6032 17.7601L54.7965 23.6177L52.8695 24.7458L45.8665 19.4395L46.5919 19.0147L47.7799 27.7255L45.8983 28.8271ZM46.6712 26.0915L46.3423 24.4119L50.423 22.0229L51.738 23.1252L46.6712 26.0915Z" fill="#263333" fill-opacity="0.6"/>
<path d="M36.6441 36.8398L30.6377 29.8784L33.6112 27.3128C34.5792 26.4776 35.5262 26.0538 36.4522 26.0412C37.3725 26.0221 38.173 26.407 38.8538 27.196C39.2999 27.7131 39.5634 28.2665 39.6442 28.856C39.7192 29.439 39.6171 30.0244 39.3379 30.6123C39.0587 31.2001 38.6074 31.7629 37.9842 32.3007L35.8659 34.1283L35.9728 32.8044L38.2552 35.4498L36.6441 36.8398ZM41.0696 33.0215L37.1498 31.9971L38.8703 30.5126L42.81 31.5199L41.0696 33.0215ZM36.1272 32.9834L34.759 32.8454L36.7878 31.095C37.2851 30.666 37.5648 30.2395 37.6271 29.8157C37.6836 29.3853 37.5488 28.9811 37.2228 28.6032C36.891 28.2187 36.5109 28.0261 36.0826 28.0256C35.6542 28.0251 35.1914 28.2394 34.6942 28.6684L32.6654 30.4188L32.7207 29.0353L36.1272 32.9834Z" fill="#263333" fill-opacity="0.6"/>
<path d="M28.5272 46.4646L21.4109 40.6425L25.8108 35.2646L27.1324 36.3458L24.0716 40.087L28.5447 43.7466L31.7136 39.8733L33.0352 40.9545L28.5272 46.4646ZM26.798 42.5212L25.517 41.4732L28.32 38.0472L29.6009 39.0952L26.798 42.5212Z" fill="#263333" fill-opacity="0.6"/>
<path d="M23.3992 55.0465L16.9272 51.3349L15.4635 53.8872L13.9595 53.0247L17.9455 46.0742L19.4495 46.9367L17.9858 49.489L24.4578 53.2006L23.3992 55.0465Z" fill="#263333" fill-opacity="0.6"/>
<path d="M18.9869 66.3501C18.7438 67.0351 18.4069 67.6309 17.9761 68.1378C17.5483 68.6364 17.0561 69.0285 16.4994 69.3141C15.9457 69.5914 15.354 69.7531 14.7244 69.7991C14.0977 69.8369 13.4626 69.7416 12.8189 69.5131C12.1752 69.2847 11.622 68.9583 11.1594 68.5339C10.6997 68.1013 10.3438 67.5986 10.0917 67.026C9.83963 66.4534 9.7047 65.8387 9.6869 65.1819C9.6691 64.5252 9.78029 63.8585 10.0205 63.1818C10.2635 62.4968 10.5975 61.9092 11.0224 61.4189C11.4503 60.9203 11.9411 60.5323 12.4948 60.2549C13.0515 59.9693 13.6446 59.8035 14.2742 59.7575C14.8955 59.7086 15.5322 59.7998 16.1841 60.0312C16.8278 60.2596 17.3836 60.5916 17.8516 61.0272C18.3113 61.4598 18.6672 61.9624 18.9193 62.535C19.166 63.0965 19.2983 63.7056 19.3161 64.3623C19.3368 65.0108 19.2271 65.6734 18.9869 66.3501ZM17.2743 65.7562C17.4119 65.3684 17.4719 64.9901 17.454 64.6214C17.4392 64.2444 17.3519 63.8882 17.1921 63.5528C17.0324 63.2174 16.8068 62.9236 16.5154 62.6715C16.2268 62.4111 15.8762 62.2077 15.4636 62.0612C15.051 61.9148 14.6506 61.8517 14.2625 61.8719C13.8773 61.8838 13.5169 61.9697 13.1815 62.1294C12.849 62.2808 12.5581 62.4982 12.309 62.7814C12.0598 63.0646 11.8663 63.4002 11.7287 63.7881C11.591 64.1759 11.5296 64.5583 11.5445 64.9353C11.5623 65.304 11.6511 65.6561 11.8108 65.9915C11.9705 66.3269 12.1947 66.6248 12.4832 66.8852C12.7747 67.1373 13.1267 67.3366 13.5394 67.483C13.9437 67.6265 14.3426 67.6938 14.7361 67.6848C15.1242 67.6646 15.4846 67.5787 15.8171 67.4273C16.1525 67.2676 16.4448 67.0461 16.694 66.7629C16.9432 66.4796 17.1366 66.1441 17.2743 65.7562Z" fill="#263333" fill-opacity="0.6"/>
<path d="M15.6812 78.4361L6.64526 76.7359L7.03874 74.6447L16.0747 76.3449L15.6812 78.4361Z" fill="#263333" fill-opacity="0.6"/>
<path d="M15.2152 87.5643C15.1768 88.2988 15.0437 88.9977 14.816 89.661C14.5796 90.3238 14.2933 90.8525 13.9569 91.247L12.3944 90.4417C12.6949 90.0628 12.9509 89.6115 13.1625 89.0877C13.3658 88.5547 13.4818 88.0127 13.5107 87.4618C13.5327 87.0421 13.511 86.7033 13.4456 86.4456C13.3719 86.1787 13.2639 85.9801 13.1216 85.8499C12.9794 85.7197 12.8121 85.6496 12.6197 85.6395C12.3748 85.6267 12.1774 85.7128 12.0274 85.8978C11.8687 86.0824 11.7374 86.3298 11.6334 86.6401C11.5207 86.9498 11.415 87.295 11.3161 87.6757C11.209 88.0471 11.0841 88.422 10.9415 88.8004C10.7994 89.17 10.6239 89.5071 10.415 89.8119C10.2061 90.1166 9.93902 90.3613 9.61368 90.5459C9.28879 90.7218 8.88149 90.7969 8.39179 90.7713C7.86711 90.7438 7.39786 90.5789 6.98403 90.2766C6.56191 89.9652 6.23894 89.5186 6.01512 88.9369C5.78302 88.346 5.68964 87.6177 5.735 86.752C5.76523 86.1748 5.86497 85.6101 6.0342 85.0577C6.19469 84.5049 6.4217 84.0214 6.71524 83.6071L8.29427 84.3475C8.02697 84.7631 7.82526 85.1822 7.68913 85.6048C7.54426 86.0269 7.46106 86.4434 7.43952 86.8544C7.41799 87.2654 7.44845 87.6046 7.5309 87.872C7.61335 88.1393 7.73029 88.334 7.88174 88.4559C8.02445 88.5774 8.19636 88.6434 8.39749 88.6539C8.6336 88.6663 8.83102 88.5802 8.98976 88.3956C9.13975 88.2105 9.26672 87.9629 9.37066 87.6527C9.4746 87.3425 9.58014 87.0016 9.68729 86.6302C9.79489 86.25 9.91538 85.8749 10.0488 85.5048C10.1826 85.126 10.354 84.7842 10.5628 84.4795C10.7717 84.1748 11.0386 83.9345 11.3635 83.7586C11.6888 83.5739 12.092 83.4942 12.5729 83.5194C13.0889 83.5464 13.5535 83.7155 13.9669 84.0265C14.3803 84.3375 14.703 84.7885 14.9351 85.3793C15.1677 85.9615 15.261 86.6898 15.2152 87.5643Z" fill="#263333" fill-opacity="0.6"/>
<path d="M15.4276 98.6614L6.26503 99.4269L6.08789 97.3064L15.2505 96.541L15.4276 98.6614Z" fill="#263333" fill-opacity="0.6"/>
<path d="M17.9199 110.579L8.94343 112.569L7.43921 105.785L9.10627 105.416L10.1498 110.122L17.4593 108.501L17.9199 110.579ZM14.2234 109.38L12.5563 109.75L11.6009 105.441L13.268 105.071L14.2234 109.38Z" fill="#263333" fill-opacity="0.6"/>
</svg>
