<svg width="57" height="57" viewBox="0 0 57 57" fill="none" xmlns="http://www.w3.org/2000/svg">
<path fill-rule="evenodd" clip-rule="evenodd" d="M47.4216 9.51921C42.4222 4.51401 35.7735 1.75635 28.6904 1.75342C14.0949 1.75342 2.21626 13.6317 2.21039 28.2311C2.20844 32.8981 3.42761 37.4539 5.74495 41.4695L1.98828 55.1909L16.0257 51.5086C19.8936 53.6185 24.2481 54.7304 28.6796 54.7317H28.6907C43.2846 54.7317 55.1645 42.8524 55.1701 28.2523C55.173 21.1767 52.4212 14.5241 47.4216 9.51921ZM28.6904 50.2598H28.6813C24.7322 50.2581 20.8591 49.1968 17.4794 47.1919L16.6761 46.7148L8.34605 48.9L10.5695 40.7784L10.046 39.9457C7.84279 36.4415 6.67939 32.3913 6.68135 28.2328C6.68592 16.0981 16.5593 6.22568 28.6992 6.22568C34.5779 6.22763 40.1039 8.51986 44.2592 12.68C48.4144 16.8401 50.7014 22.3698 50.6994 28.2507C50.6942 40.3863 40.8215 50.2598 28.6904 50.2598ZM40.7628 33.7761C40.1013 33.4448 36.8482 31.8446 36.2416 31.6235C35.6356 31.4027 35.194 31.2928 34.7533 31.9549C34.312 32.617 33.0443 34.1075 32.6581 34.5488C32.2719 34.9904 31.8864 35.0459 31.2246 34.7145C30.5629 34.3834 28.4311 33.6845 25.9037 31.4304C23.937 29.676 22.6092 27.5094 22.223 26.8473C21.8375 26.1845 22.2198 25.861 22.5133 25.497C23.2296 24.6075 23.9468 23.6751 24.1673 23.2338C24.3881 22.7922 24.2775 22.4057 24.1118 22.0746C23.9468 21.7436 22.6236 18.4869 22.0724 17.1617C21.5348 15.8721 20.9898 16.0463 20.5834 16.026C20.1979 16.0068 19.7566 16.0029 19.3154 16.0029C18.8744 16.0029 18.1575 16.1682 17.5508 16.831C16.9445 17.4934 15.2355 19.0939 15.2355 22.3505C15.2355 25.6072 17.6063 28.7533 17.937 29.1949C18.2677 29.6365 22.6027 36.3195 29.2396 39.1851C30.8182 39.8674 32.0505 40.2741 33.0116 40.5791C34.5968 41.0827 36.0387 41.0116 37.1789 40.8413C38.4503 40.6512 41.0932 39.2406 41.645 37.6952C42.1962 36.1496 42.1962 34.825 42.0305 34.5488C41.8655 34.2729 41.4242 34.1075 40.7628 33.7761Z" fill="white"/>
</svg>
